<svg xmlns="http://www.w3.org/2000/svg" viewBox="0 0 33.69 36.53"><defs><style>.cls-1{fill:#03235a;}</style></defs><title>24 horas</title><g id="Capa_2" data-name="Capa 2"><g id="Capa_1-2" data-name="Capa 1"><path class="cls-1" d="M19.13,36.53h-17L2,36.48A2.46,2.46,0,0,1,0,34V2.56A2.45,2.45,0,0,1,2.54,0H18.66a2.46,2.46,0,0,1,1.59.53,2.55,2.55,0,0,1,1,2.22c0,.63,0,1.26,0,1.9l.42.06a12.52,12.52,0,0,1,4.51,1.34,13.37,13.37,0,0,1,7.36,10,12.83,12.83,0,0,1-.56,6.5,13.4,13.4,0,0,1-5.11,6.76,13.08,13.08,0,0,1-6.27,2.34c-.26,0-.36.12-.35.4,0,.73,0,1.45,0,2.18a2.32,2.32,0,0,1-.52,1.33A2.83,2.83,0,0,1,19.13,36.53Zm.35-4.59,0-.16a15.27,15.27,0,0,1-4-.81,14,14,0,0,1-3.67-2A13.63,13.63,0,0,1,8.91,25.9a13.3,13.3,0,0,1-1.83-3.77A14.15,14.15,0,0,1,6.5,18H4.57L8.1,14.44,11.64,18H9.88a10.22,10.22,0,0,0,20.27,2.12,9.77,9.77,0,0,0-1.58-7.62A10.15,10.15,0,0,0,19.47,8V4H1.74v28Zm-8.87.89a1.24,1.24,0,1,0,1.23,1.23A1.25,1.25,0,0,0,10.61,32.83Zm0-31H8.14c-.23,0-.43,0-.42.31s.21.28.42.28h4.94c.2,0,.4,0,.41-.28s-.19-.31-.41-.31Z"/><path class="cls-1" d="M15.65,20.55h2.91c-.08.35-.14.68-.22,1a.28.28,0,0,1-.2.18H13.62A3.46,3.46,0,0,1,15,19.55c.7-.52,1.45-1,2.16-1.5a1.62,1.62,0,0,0,.79-1.4.62.62,0,0,0-.64-.69,1.09,1.09,0,0,0-1.23.9c-.09.32-.23.44-.57.41a7.3,7.3,0,0,0-.81,0,2.64,2.64,0,0,1,2.19-2.41A2.76,2.76,0,0,1,18.5,15a1.47,1.47,0,0,1,.84,1.32A2.82,2.82,0,0,1,18,18.86c-.6.41-1.22.78-1.82,1.18-.18.12-.35.28-.52.42Z"/><path class="cls-1" d="M21.7,21.74l.3-1.47H19.28a3.26,3.26,0,0,1,.65-1.72c1-1.11,1.88-2.28,2.81-3.42a.6.6,0,0,1,.54-.27c.37,0,.75,0,1.19,0l-.91,4.31h.77l-.22,1.07h-.77c-.09.41-.19.81-.26,1.21,0,.2-.11.29-.32.28S22.08,21.74,21.7,21.74Zm-1.2-2.55h1c.7,0,.7,0,.85-.66l.09-.42c.12-.59.24-1.17.37-1.76l-.06,0Z"/></g></g></svg>