<svg xmlns="http://www.w3.org/2000/svg" viewBox="0 0 18.2 29.12"><defs><style>.cls-1{fill:#706f6f;}</style></defs><title>celular 2</title><g id="Capa_2" data-name="Capa 2"><g id="Capa_1-2" data-name="Capa 1"><path class="cls-1" d="M15.47,0H2.73A2.73,2.73,0,0,0,0,2.73V26.39a2.73,2.73,0,0,0,2.73,2.73H15.47a2.73,2.73,0,0,0,2.73-2.73V2.73A2.73,2.73,0,0,0,15.47,0ZM9.1,27.3a1.82,1.82,0,1,1,1.82-1.82A1.81,1.81,0,0,1,9.1,27.3Zm6.37-6.14a.69.69,0,0,1-.68.68H3.41a.69.69,0,0,1-.68-.68V3.41a.69.69,0,0,1,.68-.68H14.79a.69.69,0,0,1,.68.68Z"/></g></g></svg>