<svg xmlns="http://www.w3.org/2000/svg" viewBox="0 0 12.4 19.84"><defs><style>.cls-1{fill:#03235a;}</style></defs><title>celular</title><g id="Capa_2" data-name="Capa 2"><g id="Capa_1-2" data-name="Capa 1"><path class="cls-1" d="M10.54,0H1.86A1.86,1.86,0,0,0,0,1.86V18a1.86,1.86,0,0,0,1.86,1.86h8.68A1.86,1.86,0,0,0,12.4,18V1.86A1.86,1.86,0,0,0,10.54,0ZM6.2,18.6a1.24,1.24,0,1,1,1.24-1.24A1.23,1.23,0,0,1,6.2,18.6Zm4.34-4.19a.47.47,0,0,1-.47.47H2.32a.47.47,0,0,1-.46-.47V2.32a.47.47,0,0,1,.46-.46h7.75a.47.47,0,0,1,.47.46Z"/></g></g></svg>