<svg xmlns="http://www.w3.org/2000/svg" viewBox="0 0 93.62 106.99"><defs><style>.cls-1{fill:#fff;}</style></defs><title>doc</title><g id="Capa_2" data-name="Capa 2"><g id="Capa_1-2" data-name="Capa 1"><path class="cls-1" d="M46.81,53.5A26.75,26.75,0,1,0,20.06,26.75,26.75,26.75,0,0,0,46.81,53.5ZM21.73,88.6a5,5,0,1,0,5-5A5,5,0,0,0,21.73,88.6ZM66.87,60.31V70.55A16.72,16.72,0,0,1,80.24,86.93v8.71a3.36,3.36,0,0,1-2.69,3.29l-6.73,1.33a1.66,1.66,0,0,1-2-1.31l-.64-3.28a1.65,1.65,0,0,1,1.31-2l4-.81v-6c0-13.12-20.06-13.6-20.06.4v5.58l4,.81a1.71,1.71,0,0,1,1.32,2L58.2,99a1.69,1.69,0,0,1-2,1.31l-6.52-.87a3.34,3.34,0,0,1-2.88-3.33V86.93A16.75,16.75,0,0,1,60.2,70.55V61.1c-.46.15-.92.23-1.38.4a36.12,36.12,0,0,1-24,0,23.25,23.25,0,0,0-4.72-1.09v17a11.7,11.7,0,1,1-6.68,0V60.66A28,28,0,0,0,0,88.27v9.36A9.37,9.37,0,0,0,9.36,107h74.9a9.37,9.37,0,0,0,9.36-9.36V88.27a28,28,0,0,0-26.75-28Z"/></g></g></svg>