<svg xmlns="http://www.w3.org/2000/svg" viewBox="0 0 19.94 17.15"><defs><style>.cls-1{fill:#706f6f;}</style></defs><title>email</title><g id="Capa_2" data-name="Capa 2"><g id="Capa_1-2" data-name="Capa 1"><path class="cls-1" d="M19.57,5.66c.15-.14.37,0,.37.21V15a2,2,0,0,1-1.87,2.15H1.87A2,2,0,0,1,0,15V5.88c0-.23.22-.35.38-.21.87.77,2,1.76,6,5.07.82.69,2.21,2.13,3.59,2.12s2.81-1.46,3.6-2.12C17.54,7.43,18.69,6.44,19.57,5.66ZM10,11.43c.91,0,2.21-1.3,2.86-1.85,5.17-4.3,5.56-4.67,6.75-5.74A1.15,1.15,0,0,0,19.94,3V2.14A2,2,0,0,0,18.07,0H1.87A2,2,0,0,0,0,2.14V3a1.15,1.15,0,0,0,.36.85C1.55,4.9,1.94,5.28,7.11,9.58c.66.55,2,1.87,2.86,1.85Z"/></g></g></svg>