<svg xmlns="http://www.w3.org/2000/svg" viewBox="0 0 18.72 18.71"><defs><style>.cls-1{fill:#706f6f;}</style></defs><title>instagram </title><g id="Capa_2" data-name="Capa 2"><g id="Capa_1-2" data-name="Capa 1"><path class="cls-1" d="M9.36,4.56a4.8,4.8,0,1,0,4.8,4.8A4.79,4.79,0,0,0,9.36,4.56Zm0,7.92a3.12,3.12,0,1,1,3.12-3.12,3.12,3.12,0,0,1-3.12,3.12Zm6.11-8.12a1.12,1.12,0,1,1-1.11-1.12A1.12,1.12,0,0,1,15.47,4.36ZM18.65,5.5a5.51,5.51,0,0,0-1.51-3.92A5.51,5.51,0,0,0,13.22.07C11.67,0,7,0,5.5.07a5.57,5.57,0,0,0-3.92,1.5A5.55,5.55,0,0,0,.07,5.49C0,7,0,11.67.07,13.22a5.55,5.55,0,0,0,1.51,3.92A5.62,5.62,0,0,0,5.5,18.65c1.54.09,6.17.09,7.72,0a5.56,5.56,0,0,0,3.92-1.51,5.59,5.59,0,0,0,1.51-3.92c.09-1.55.09-6.18,0-7.72Zm-2,9.37a3.18,3.18,0,0,1-1.78,1.78c-1.23.49-4.16.38-5.52.38s-4.29.11-5.52-.38a3.13,3.13,0,0,1-1.77-1.78c-.49-1.23-.38-4.15-.38-5.51s-.11-4.29.38-5.52A3.13,3.13,0,0,1,3.84,2.06C5.08,1.57,8,1.69,9.36,1.69s4.29-.11,5.52.37a3.18,3.18,0,0,1,1.78,1.78C17.14,5.07,17,8,17,9.36S17.14,13.65,16.66,14.87Z"/></g></g></svg>