<svg xmlns="http://www.w3.org/2000/svg" viewBox="0 0 173.49 48.51"><defs><style>.cls-1{fill:#fff;}</style></defs><title>logo shalom</title><g id="Capa_2" data-name="Capa 2"><g id="Capa_1-2" data-name="Capa 1"><path class="cls-1" d="M131.48,34.12c1,0,2.09,0,3.13,0,.56,0,.71-.14.7-.7,0-3.67,0-7.35,0-11V20.28c.56,1.94,1,3.88,1.45,5.83q.85,3.72,1.7,7.45c.09.4.26.58.71.56,1,0,1.94,0,2.92,0,.29,0,.44,0,.52-.4q1.17-5.17,2.38-10.35c.23-1,.48-2,.72-3.05l.12,0V21c0,4.13,0,8.25,0,12.37,0,.61.17.76.75.72s1.42,0,2.13,0a1.44,1.44,0,0,0,1.44-1.39c0-3.58,0-7.16,0-10.74,0-.32-.09-.4-.41-.48a18.46,18.46,0,0,1-3-1.14A32.71,32.71,0,0,1,142.57,18c-.64,2.74-1.26,5.41-1.89,8.08l-.23,0c0-.15-.11-.31-.15-.46-.75-3.25-1.51-6.48-2.24-9.73-.1-.49-.27-.66-.78-.65-1.92,0-3.83,0-5.75,0-.41,0-.58.08-.58.55q0,8.91,0,17.84C131,34,131.09,34.12,131.48,34.12Z"/><path class="cls-1" d="M58,34.12c1.35,0,2.71,0,4,0,.52,0,.69-.1.68-.65,0-2.11,0-4.22,0-6.33,0-.55.16-.66.67-.65,1.5,0,3,0,4.48,0,.49,0,.65.11.64.62,0,2.11,0,4.22,0,6.33,0,.58.18.7.72.68q2,0,3.9,0c.53,0,.72-.1.71-.68,0-2.91,0-5.83,0-8.74s0-5.87,0-8.81c0-.5-.07-.7-.64-.68-1.35,0-2.7,0-4,0-.49,0-.65.11-.64.62,0,1.8,0,3.6,0,5.4,0,.46-.11.61-.59.6-1.52,0-3,0-4.55,0-.56,0-.66-.18-.65-.69,0-1.77,0-3.55,0-5.33,0-.42-.06-.62-.57-.61-1.39,0-2.79,0-4.19,0-.4,0-.52.1-.52.51q0,8.93,0,17.84C57.39,34,57.55,34.13,58,34.12Z"/><path class="cls-1" d="M115.1,33.57a10.19,10.19,0,0,0,5.88.78,7.44,7.44,0,0,0,6.52-5.21A14.08,14.08,0,0,0,128,22a7.86,7.86,0,0,0-4.61-6.37,10.44,10.44,0,0,0-5.56-.65,7.58,7.58,0,0,0-5.45,3.08A10.88,10.88,0,0,0,110.57,25a11.42,11.42,0,0,0,.14,2.13C111.21,29.91,112.42,32.27,115.1,33.57Zm1.08-11.79a3,3,0,0,1,3.14-2.48,3.14,3.14,0,0,1,3.2,2.31,10.21,10.21,0,0,1,.44,3,14.6,14.6,0,0,1-.41,3,3.11,3.11,0,0,1-3.22,2.43,3.2,3.2,0,0,1-3.17-2.47A10.91,10.91,0,0,1,116.18,21.78Z"/><path class="cls-1" d="M149.19,20.46c.23.08.46.25.73.12,0-.31-.27-.38-.45-.51a38.31,38.31,0,0,1-7.89-7.42,25.06,25.06,0,0,1-4.69-9c0-.2-.23-.44,0-.6s.4,0,.59.09a40.19,40.19,0,0,1,7.44,3.67,22.49,22.49,0,0,1,7.72,7.79,15.86,15.86,0,0,1,1.66,11.53,17.94,17.94,0,0,1-6.61,10.93c-.87.65-1.78,1.23-2.64,2,1.06-.06,2.12-.11,3.18-.19a2.28,2.28,0,0,0,1-.38,20.42,20.42,0,0,0,4.52-4.18,17.42,17.42,0,0,0,4.21-13.45,20.33,20.33,0,0,0-9-15A35.59,35.59,0,0,0,134.63,0c-.64-.12-.8,0-.75.64A22.26,22.26,0,0,0,135.6,8,22.2,22.2,0,0,0,149.19,20.46Z"/><path class="cls-1" d="M43.27,33.9a13.48,13.48,0,0,0,3.84.58,12.05,12.05,0,0,0,2.54-.28,6.3,6.3,0,0,0,4.76-8.26c-.7-1.94-2.24-2.88-4-3.56-1.48-.56-3-.82-4.53-1.32a1.26,1.26,0,0,1-1-1.34,1.5,1.5,0,0,1,1.32-1.28,2.36,2.36,0,0,1,3,1.91c.1.38.23.5.61.47,1.35-.1,2.69-.2,4-.26.39,0,.4-.21.36-.5C53.82,18,53,16.33,51,15.55a10.46,10.46,0,0,0-7.76,0,5.22,5.22,0,0,0-2,8.29,8.79,8.79,0,0,0,4.11,2.24,18.84,18.84,0,0,1,3.22,1,1.8,1.8,0,0,1,1.07,1.84,1.76,1.76,0,0,1-1.15,1.56,2.83,2.83,0,0,1-3.88-1.77,3.77,3.77,0,0,1-.2-.75c0-.39-.19-.5-.58-.46-1.06.11-2.12.16-3.17.27-1.38.14-1.42.17-1.1,1.51A5.84,5.84,0,0,0,43.27,33.9Z"/><path class="cls-1" d="M76.22,34.13c1.26-.07,2.51-.06,3.77,0,.65,0,1.06-.06,1.14-.82.06-.58.31-1.14.42-1.72a.59.59,0,0,1,.71-.57c1.56,0,3.12,0,4.68,0,.64,0,.88.2,1,.8s.35,1.17.46,1.77.3.56.72.55c1.42,0,2.84,0,4.26,0,.67,0,.65-.18.46-.73q-3-8.78-5.94-17.58a.73.73,0,0,0-.85-.6c-.76,0-1.52,0-2.27,0s-1.47,0-2.21,0a.71.71,0,0,0-.85.58c-.6,1.88-1.25,3.75-1.88,5.61q-2,6-4.07,12C75.59,33.81,75.44,34.17,76.22,34.13ZM83,26.5c.54-1.94,1.06-3.89,1.59-5.84a1.93,1.93,0,0,1,.2-.34c.59,2.08,1.16,4.11,1.73,6.13.09.29.05.45-.3.44q-1.45,0-2.91,0C83,26.89,82.87,26.85,83,26.5Z"/><path class="cls-1" d="M95.77,24.69c0,2.94,0,5.87,0,8.81,0,.51.14.62.63.62q6.12,0,12.23,0c.5,0,.64-.15.63-.64,0-1.14,0-2.28,0-3.41,0-.47-.13-.61-.6-.6-2.3,0-4.6,0-6.9,0-.6,0-.73-.16-.72-.74,0-4.31,0-8.63,0-12.94,0-.45-.1-.61-.58-.6-1.35,0-2.7,0-4,0-.54,0-.67.13-.66.66C95.79,18.81,95.77,21.75,95.77,24.69Z"/><path class="cls-1" d="M173.14,15a4.3,4.3,0,0,1-2.34-1.25A18.43,18.43,0,0,1,169.24,12a4.56,4.56,0,0,0-3-1.8c-2.68-.32-4.5,1.16-6.09,3.07a31.5,31.5,0,0,1,3.3-.76,4.51,4.51,0,0,1,4.33,1.84c.21.35.24.48-.2.71a8.15,8.15,0,0,0-4.35,6.05A16.29,16.29,0,0,1,157.68,31a7.82,7.82,0,0,0-1.53,1.24,32.56,32.56,0,0,1-3.18,4,16.45,16.45,0,0,0,3.55-.91,12.45,12.45,0,0,0,6.85-5.11,16.1,16.1,0,0,0,1.93-6,10,10,0,0,1,5.49-7.64,20.51,20.51,0,0,1,2.4-1c.15-.06.33-.13.3-.33S173.27,15,173.14,15Z"/><path class="cls-1" d="M147.43,35.78l-.45,0a46.78,46.78,0,0,1-8.18.74H41.47c-.38,0-.43.22-.4.51,0,.61.53.36.82.36l94,0c2.7,0,5.4.07,8.1-.1A4,4,0,0,0,147.43,35.78Z"/><path class="cls-1" d="M35.84,29.16A11,11,0,0,0,37.91,22c-.43-4-2.72-5.73-6.09-6a8.5,8.5,0,0,0-6.3,2.24,12,12,0,0,0-3.24,3.43c-2.15,3.22-4.05,6.6-6,9.94a14.57,14.57,0,0,1-3.52,4.32,4.39,4.39,0,0,1-6-.24A3.49,3.49,0,0,1,6.12,33a7.47,7.47,0,0,0,.21-1.24l.12-.21,0-.22a.78.78,0,0,1,.61-.41,6.79,6.79,0,0,0,4.39-2.82c1.52-1.9,3.12-3.71,4.69-5.56s2.95-3.49,4.46-5.21c.13-.14.49-.29.18-.55s-.08-.51.11-.74a15.67,15.67,0,0,0,2.41-3.66,3.41,3.41,0,0,0-.62-4,2.13,2.13,0,0,1-.57-1.23,2,2,0,0,0-1.78-1.76,2.16,2.16,0,0,0-2.13,1.12,2.11,2.11,0,0,0,.33,2.43,2,2,0,0,0,2.4.46c.71-.47,1-.06,1.22.43a2.14,2.14,0,0,1,.23,1.77,14.14,14.14,0,0,1-2.53,4c-.09.12-.2.23-.34.08-.29-.31-.41,0-.54.16-.67.8-1.31,1.62-2,2.4a1.58,1.58,0,0,0-.47,1.4,7.39,7.39,0,0,1,0,1.56c0,.55-.51.9-.91.61s-.5,0-.69.14c-.53.47-1,1.21-1.59,1.36-.81.2-1.13.75-1.58,1.25a38.94,38.94,0,0,1-2.63,3.11,3.21,3.21,0,0,1-2.83,1,2.73,2.73,0,0,1-1.94-2.24c-.6-2.77-.87-5.6-1.3-8.4a3.54,3.54,0,0,0-1-2.36A2.84,2.84,0,0,1,1.39,14c-.07-.32,0-.78.34-.73.94.13.59-.45.54-.86s-.13-.83-.2-1.26c0-.16,0-.35-.23-.39-.42-.06-.43-.41-.45-.7-.07-.82-.12-1.65-.15-2.48a6.06,6.06,0,0,1,.28-2.24A2,2,0,0,1,3.13,4.11c.62-.17.64.42.94.66.08.06.14.14.21.2a2.07,2.07,0,0,0,3-.21A2.1,2.1,0,1,0,3.9,2.24a1.45,1.45,0,0,1-1,.69A3.17,3.17,0,0,0,.43,5.56,13.71,13.71,0,0,0,.27,9c0,.7.69,1.56-.25,2.18,0,0,0,.22,0,.34C.27,13,.49,14.51.72,16c.44,2.88.92,5.75,1.34,8.62.24,1.7.32,3.56,1.63,4.74,1.09,1,.83,1.81.55,2.93a4.79,4.79,0,0,0,1.67,5.15l.14.13,0,0a5.17,5.17,0,0,0,6,1.07,11.89,11.89,0,0,0,4.23-3.41A40.26,40.26,0,0,0,19.16,31c1.1-1.82,2.12-3.68,3.18-5.52a26.22,26.22,0,0,1,3.9-5A8.84,8.84,0,0,1,30.44,18,4.69,4.69,0,0,1,36,23.29a18.06,18.06,0,0,1-2.08,5.38c-.17.36-.4.34-.69.24a4.34,4.34,0,0,0-2.91,0A4.7,4.7,0,1,0,34,37.57,4.64,4.64,0,0,0,35.83,31,1.49,1.49,0,0,1,35.84,29.16Zm-4.08,6.91a2.7,2.7,0,0,1-2.66-2.73,2.7,2.7,0,0,1,5.4.07A2.7,2.7,0,0,1,31.76,36.07Z"/><path class="cls-1" d="M11.52,18.09c-.4.63-.95,1.24-.76,2.11.05.24-.18.42-.35.58a1.69,1.69,0,0,0-.45,2.3c.4-.22.47-.69.77-1l.18.18c-.11.31-.23.62-.33.93s-.12.53.17.69.45-.06.61-.22a5.87,5.87,0,0,0,.94-1.32c.64-1.08,1.27-2.15,1.93-3.22.2-.34.47-.51.71,0a1.61,1.61,0,0,1-.47,2.41l-1.2,1.1c-.13.12-.33.21-.23.47.23.08.33-.12.46-.23.54-.49,1.07-1,1.63-1.48.1-.09.21-.42.41-.1s.25.37.5.27.27-.36.27-.6a13.34,13.34,0,0,0-.25-2.89c-.18-.88-.39-1.06-1.28-1.07a1.43,1.43,0,0,1-1.18-.39v0h0l0,0c-.71-.2-.86-.81-1-1.4a10.58,10.58,0,0,1-.16-1.26c0-.21-.08-.44-.33-.49s-.38.16-.49.33a1.41,1.41,0,0,0-.17.46,3.74,3.74,0,0,0,.22,2.22A1.67,1.67,0,0,1,11.52,18.09Z"/><path class="cls-1" d="M4.42,21.38A2.92,2.92,0,0,1,6,22.79c.15.34.45.3.54-.13s0-.9.33-1.27c.1-.1,0-.24-.18-.33a1.86,1.86,0,0,1-.55-.63.74.74,0,0,1-.07-.8.51.51,0,0,1,.67-.12c.18.11.25,0,.34-.19a1.46,1.46,0,0,0-.57-2c-.17-.11-.33-.19-.34-.4s.21-.27.37-.34c.43-.21.85-.41,1.27-.63.14-.07.3-.2.25-.38s-.26-.17-.41-.16c-.31,0-.61.06-.92.11-1.71.28-3.26.09-4.34-1.49a2.13,2.13,0,0,0-.3-.3c-.12-.1-.26-.27-.42-.13s-.07.27,0,.4A3.61,3.61,0,0,0,3,16.15a3.23,3.23,0,0,1,1,2.2,12.08,12.08,0,0,1,.16,2.48C4.22,21,4.18,21.26,4.42,21.38Z"/><path class="cls-1" d="M149.78,15.22H145a35.21,35.21,0,0,0,5.14,4.26c0-1.35,0-2.58,0-3.81C150.13,15.42,150.14,15.22,149.78,15.22Z"/><path class="cls-1" d="M9.89,20.76a2.16,2.16,0,0,0,.5-.5.27.27,0,0,0,0-.33c-.08-.13-.2-.08-.31,0s-.27.1-.39.17a2.34,2.34,0,0,1-2.61,0c-.19-.13-.42-.34-.73-.16a1.1,1.1,0,0,0,.54.86c.42.24.43.52.3.94s-.61,1.17.11,1.69c0,0,0,.14,0,.21,0,.38-.07,1,.36,1S8,24,8.32,23.56v.83c0,.18.06.34.27.35a.31.31,0,0,0,.31-.24c.23-.8.79-1.53.5-2.44A1,1,0,0,1,9.89,20.76Z"/><path class="cls-1" d="M14.1,16.64A1,1,0,0,0,15.28,16a1,1,0,0,0-.38-1.3,1,1,0,0,0-1.35.08,1,1,0,0,0-.24,1.34c.09.17.35.24.29.49C13.78,16.46,13.94,16.62,14.1,16.64Z"/><path class="cls-1" d="M9.39,14.17a1,1,0,0,0,1-1,1.08,1.08,0,0,0-1.1-1,1,1,0,0,0-1,1.07A1,1,0,0,0,9.39,14.17Z"/><path class="cls-1" d="M5.69,14.26c-.06-.54-.32-.88-.9-.88a.8.8,0,0,0-.89.87.82.82,0,0,0,.88.89C5.34,15.15,5.62,14.8,5.69,14.26Z"/><path class="cls-1" d="M8.34,20.3c.53,0,.82-.29.82-.79a.74.74,0,0,0-.8-.8.73.73,0,0,0-.76.76A.71.71,0,0,0,8.34,20.3Z"/><path class="cls-1" d="M6.17,14.93c0,.18.24.23.4.21.49,0,1-.09,1.47-.14.39.17.56.48.36.85a6.2,6.2,0,0,0-.37,2c-.07.37.05.59.48.58a.94.94,0,0,1,1,.76c.18.52.5.57.87.14a1.24,1.24,0,0,0,.3-.55A21.4,21.4,0,0,0,11,14.7c0-.3-.16-.43-.46-.38l-1.39.26a10.23,10.23,0,0,0-2.65.12C6.37,14.74,6.13,14.7,6.17,14.93Z"/><path class="cls-1" d="M13,14.17c.26,0,.44-.31.47-.61s-.15-.43-.43-.42-.4,0-.33.34S12.61,14.14,13,14.17Z"/><path class="cls-1" d="M50.56,46.12c-.35,0-.71,0-1.06,0S49,46,49,45.66s.17-.44.48-.42.71,0,1.06,0,.46-.17.47-.52-.11-.46-.45-.43-.75,0-1.13,0-.44,0-.43-.38.17-.33.41-.33c.4,0,.8,0,1.2,0s.56-.05.55-.49-.1-.55-.52-.53c-.8,0-1.61,0-2.41,0-.47,0-.55.17-.54.58,0,.75,0,1.51,0,2.27,0,.54-.17,1.24.1,1.58s1.06.06,1.5.14h1.24c.35,0,.68.09.67-.51S50.94,46.11,50.56,46.12Z"/><path class="cls-1" d="M56.8,43.94c-.16.08-.2.21-.46,0-.52-.39-1-.05-1,.61,0,1.06,0,2.12,0,3.19,0,.42,0,.68.58.69s.58-.29.55-.7c0-.25,0-.51,0-.78,1,.41,1.69.29,2-.45a2.51,2.51,0,0,0,0-2.06A1.07,1.07,0,0,0,56.8,43.94ZM57,46.26c-.44,0-.52-.46-.5-.81s.1-.73.53-.71.46.45.47.79S57.42,46.29,57,46.26Z"/><path class="cls-1" d="M79.64,43.07c0-.38-.1-.49-.47-.49s-.79,0-.69.63a5.72,5.72,0,0,1,0,.84c-1.16-.48-1.92-.17-2.1.85a2.58,2.58,0,0,0,.08,1.4c.34.93,1,1.19,1.81.68.18-.11.2-.19.37.07s.58.14.86.06.12-.37.12-.56C79.64,45.39,79.62,44.23,79.64,43.07ZM78,46.27c-.49,0-.49-.43-.49-.79s0-.74.47-.73.48.43.53.79S78.41,46.27,78,46.27Z"/><path class="cls-1" d="M87.33,43.08c0-.34-.06-.49-.46-.5s-.81.06-.71.67a4.15,4.15,0,0,1,0,.79c-1.27-.49-2-.09-2.13,1.11a2.64,2.64,0,0,0,.13,1.18,1.12,1.12,0,0,0,1.77.68c.16-.09.21-.27.38.05s.59.12.87,0,.13-.36.13-.55C87.33,45.4,87.32,44.24,87.33,43.08Zm-1.68,3.19c-.43,0-.45-.41-.47-.71s0-.83.51-.81.48.39.48.75S86.12,46.28,85.65,46.27Z"/><path class="cls-1" d="M61,43.78a1.66,1.66,0,0,0-1.93,1.16A1.8,1.8,0,0,0,60,47.11a1.85,1.85,0,0,0,2.41-.82c-.48,0-.95-.25-1.41.14a.45.45,0,0,1-.58-.14c-.09-.11-.17-.28-.08-.38s.35-.08.53-.09c.4,0,.8,0,1.2,0s.48-.16.46-.51A1.56,1.56,0,0,0,61,43.78Zm-.29,1.44c-.18-.06-.49.11-.45-.27a.49.49,0,0,1,1,0C61.26,45.38,60.91,45.13,60.74,45.22Z"/><path class="cls-1" d="M89.63,45.82a5.46,5.46,0,0,1,1,0c.72.11.78-.28.66-.82a1.47,1.47,0,0,0-.14-.4,1.62,1.62,0,0,0-1.93-.79A1.75,1.75,0,0,0,89,47.15a1.74,1.74,0,0,0,2.25-.84,4,4,0,0,1-.76-.1c-.29-.09-.42.16-.64.22a.51.51,0,0,1-.58-.13c-.07-.11-.17-.3-.12-.38S89.45,45.83,89.63,45.82Zm-.5-.85a.44.44,0,0,1,.48-.41.45.45,0,0,1,.51.46c0,.36-.38.11-.57.19C89.41,45.12,89.07,45.38,89.13,45Z"/><path class="cls-1" d="M72,45.88v-.63c0-.57,0-1.15-.67-1.34a2.31,2.31,0,0,0-2.28.28.47.47,0,0,0-.19.5c.07.25.31.15.48.19a1,1,0,0,0,.82-.26c.17-.12.51-.16.63.09s-.24.34-.41.41c-.37.14-.79.17-1.15.33A.91.91,0,0,0,68.94,47a1.3,1.3,0,0,0,1.4.17.78.78,0,0,1,.81,0c.51.27.84,0,.82-.59,0-.21,0-.42,0-.64Zm-1.65.63c-.24.08-.48,0-.47-.27,0-.58.6-.4.91-.62A.63.63,0,0,1,70.31,46.51Z"/><path class="cls-1" d="M83.48,45.38c.06-1.34-.41-1.65-1.86-1.6a1.22,1.22,0,0,0-1.17.54c-.18.33-.19.55.26.55s.63.1.9-.23a.43.43,0,0,1,.68.08c.15.35-.26.34-.44.41a9.8,9.8,0,0,0-1.15.31.93.93,0,0,0,.1,1.71A1.59,1.59,0,0,0,82.1,47c.11,0,.23-.27.34-.12.32.46.74.11,1.21.27A3.87,3.87,0,0,1,83.48,45.38Zm-1.71,1.14a.3.3,0,0,1-.41-.27c0-.57.58-.42.93-.62A.64.64,0,0,1,81.77,46.52Z"/><path class="cls-1" d="M65.15,46.08a.54.54,0,0,1-.9.08,1,1,0,0,1,0-1.25.53.53,0,0,1,.86-.07.56.56,0,0,0,.53.17c.18-.06.5.08.6-.16s-.15-.46-.31-.66a1.46,1.46,0,0,0-1-.4,1.71,1.71,0,0,0-1.9.9A1.89,1.89,0,0,0,63.58,47a2.1,2.1,0,0,0,2.32-.16c.21-.21.53-.58.31-.75S65.5,45.62,65.15,46.08Z"/><path class="cls-1" d="M94.15,45.17a6.4,6.4,0,0,0-.89-.2c-.18,0-.44,0-.39-.29a.3.3,0,0,1,.5-.17c.41.36.84.18,1.34.18a1.66,1.66,0,0,0-2.24-.8.88.88,0,0,0-.66.89.9.9,0,0,0,.62.93c.26.1.56.1.82.2s.46,0,.48.32a.31.31,0,0,1-.13.23.5.5,0,0,1-.65-.09s-.07-.15-.12-.16c-.37-.1-.82-.18-1,.12s.15.5.37.66a2.36,2.36,0,0,0,2.29-.07A1,1,0,0,0,94.15,45.17Z"/><path class="cls-1" d="M54,45.14l-1-.22c-.11,0-.24-.07-.22-.23a.31.31,0,0,1,.25-.22.58.58,0,0,1,.51.16c.29.24.64.06,1,.06.13,0,.12-.14.1-.22a.89.89,0,0,0-.72-.61l-.64-.13c-.2,0-.4.09-.61.12a1,1,0,0,0,0,1.91,6.33,6.33,0,0,1,.75.19c.17.06.51.06.35.38a.44.44,0,0,1-.62.16c-.12-.06-.19-.23-.31-.27-.37-.12-.87-.19-1,.12s.24.62.57.75a2.4,2.4,0,0,0,1.73,0,1,1,0,0,0,.77-1A.91.91,0,0,0,54,45.14Z"/><path class="cls-1" d="M73.25,42.59c-.29,0-.63-.11-.6.42s0,1.22,0,1.84,0,1.27,0,1.91c0,.47.28.41.55.38s.64.19.64-.37c0-1.24,0-2.5,0-3.74C73.85,42.53,73.56,42.58,73.25,42.59Z"/><path class="cls-1" d="M75.42,43.86c-.52,0-.94,0-.81.71a4.71,4.71,0,0,1,0,.92c0,.42,0,.85,0,1.27s.19.43.47.38.67.21.67-.34c0-.87,0-1.74,0-2.61C75.76,43.94,75.65,43.88,75.42,43.86Z"/><path class="cls-1" d="M68.06,45.5c0-.4,0-.8,0-1.2s-.28-.43-.59-.43-.56-.06-.53.41c0,.82,0,1.65,0,2.47,0,.31.09.4.4.41.5,0,.82,0,.73-.67A6.53,6.53,0,0,1,68.06,45.5Z"/><path class="cls-1" d="M67.5,42.58c-.33,0-.58,0-.57.46s.22.45.4.42c.4,0,.74.12.75-.41S67.84,42.58,67.5,42.58Z"/><path class="cls-1" d="M75.21,42.59c-.3,0-.6-.09-.6.42s.22.49.56.44.6.12.6-.41S75.53,42.57,75.21,42.59Z"/><path class="cls-1" d="M101.34,42.59a2,2,0,0,1-.42,0c-.41-.05-.64,0-.7.53a16.27,16.27,0,0,1-.49,2,4.63,4.63,0,0,1-.42-1.42c-.34-1.12-.31-1.11-1.44-1.1-.43,0-.51.15-.5.53,0,1.19,0,2.37,0,3.55,0,.43.16.5.53.5s.56,0,.54-.49c0-.78,0-1.56,0-2.34a12.08,12.08,0,0,1,.68,2.3c.07.4.23.54.65.54s.48-.19.55-.53c.14-.72.34-1.43.52-2.15l.14,0c0,.72,0,1.44,0,2.16,0,.45.19.48.55.48s.56,0,.55-.48c0-1.14,0-2.28,0-3.41C102.08,42.69,101.88,42.51,101.34,42.59Z"/><path class="cls-1" d="M109.14,42.56c-.62,0-.54.34-.53.72V44c-1-.4-1.69-.25-2,.48a2.41,2.41,0,0,0,.1,2.11,1,1,0,0,0,1.44.5c.21-.08.32-.24.66,0,.56.35.93,0,.93-.64,0-1.07,0-2.13,0-3.19C109.79,42.78,109.72,42.57,109.14,42.56Zm-1,3.71c-.45,0-.48-.37-.47-.72s0-.79.46-.8.5.41.5.72S108.59,46.26,108.11,46.27Z"/><path class="cls-1" d="M104.51,43.77a1.65,1.65,0,0,0-1.84,1.2,1.76,1.76,0,0,0,3.26,1.33c-.46.05-.89-.29-1.34.1a.42.42,0,0,1-.62-.13c-.07-.09-.16-.23-.13-.3.1-.27.36-.12.55-.14s.47,0,.71,0,.76.17.92-.13,0-.82-.2-1.2A1.53,1.53,0,0,0,104.51,43.77Zm-.17,1.44c-.18-.07-.5.14-.5-.19a.48.48,0,0,1,.52-.46.42.42,0,0,1,.47.41C104.85,45.38,104.5,45.13,104.34,45.21Z"/><path class="cls-1" d="M119.35,45.34c0-1.29-.5-1.73-1.8-1.57-.48.06-1,.1-1.26.63-.16.31-.1.46.23.46s.64.18.91-.17a.57.57,0,0,1,.66-.08.18.18,0,0,1,.11.23c-.1.23-.33.25-.52.31s-.61.11-.9.21a.9.9,0,0,0-.7,1,.92.92,0,0,0,.8.85,1.87,1.87,0,0,0,1.1-.16c.11,0,.19-.26.34-.09.34.36.74.12,1.2.18A4.49,4.49,0,0,1,119.35,45.34Zm-1.71,1.2c-.25,0-.43-.16-.4-.35.07-.4.45-.4.76-.48s.25,0,.24.2A.68.68,0,0,1,117.64,46.54Z"/><path class="cls-1" d="M114.46,46.1c-.39.46-.88.3-1-.28a.93.93,0,0,1,.25-1c.28-.22.58-.1.88.15a.77.77,0,0,0,1-.08c.2-.25-.16-.53-.37-.74a2.08,2.08,0,0,0-1.13-.37,1.7,1.7,0,0,0-1.79,1.38,1.78,1.78,0,0,0,.91,2,1.91,1.91,0,0,0,2.3-.52c.12-.17.32-.45.1-.53S114.84,45.65,114.46,46.1Z"/><path class="cls-1" d="M122.28,45.14a4,4,0,0,0-.83-.17c-.16,0-.34,0-.4-.22s0-.18.11-.23a.35.35,0,0,1,.46,0,.89.89,0,0,0,.85.2c.13,0,.31.05.38-.12a.42.42,0,0,0-.18-.43,2,2,0,0,0-1.93-.3.89.89,0,0,0-.73.92.88.88,0,0,0,.68.94c.3.09.6.14.89.22s.44.06.36.33-.34.31-.58.22-.2-.2-.32-.26c-.39-.18-.91-.2-1.09.11s.26.61.59.74a6.54,6.54,0,0,0,.9.2,5.56,5.56,0,0,0,.83-.18,1,1,0,0,0,.76-1A.92.92,0,0,0,122.28,45.14Z"/><path class="cls-1" d="M111.64,45.56c0-.43,0-.86,0-1.28s-.32-.4-.6-.41-.57-.08-.56.39c0,.82,0,1.65,0,2.48,0,.37.16.39.47.42.53,0,.78-.11.7-.68A5.65,5.65,0,0,1,111.64,45.56Z"/><path class="cls-1" d="M111.06,42.59c-.32,0-.59,0-.59.44s.3.43.62.42.57.07.57-.43S111.36,42.6,111.06,42.59Z"/><path class="cls-1" d="M105.14,42.58c-.89-.06-.89-.06-1.27.86C104.59,43.49,104.8,43,105.14,42.58Z"/><path class="cls-1" d="M141.85,44c-.27.19-.36.2-.6,0a1,1,0,0,0-1.13-.11c-.21.08-.33.25-.68,0-.57-.35-.93,0-.93.64v.92c0,.41,0,.81,0,1.21-.06.56.32.43.63.46s.57-.06.53-.49,0-.9,0-1.35c0-.29.15-.54.45-.53s.36.27.36.53c0,.48,0,.95,0,1.42s.31.41.6.42.63.08.59-.43a14.81,14.81,0,0,1,0-1.49.44.44,0,0,1,.38-.45c.27,0,.37.21.38.42a9.62,9.62,0,0,1,0,1.42c0,.37.06.53.49.55s.75-.16.7-.71,0-1.05,0-1.56A1,1,0,0,0,141.85,44Z"/><path class="cls-1" d="M133.36,42.6c-.75,0-1.74-.26-2.2.12s-.08,1.42-.15,2.05v.9a6.77,6.77,0,0,1,0,.78c-.08.55.11.71.68.72s.63-.24.62-.7c0-1.14,0-1.15,1.11-1.17.31,0,.53,0,.53-.44s-.21-.5-.56-.47h-.71c-.34,0-.38-.16-.39-.44s.13-.37.39-.36.62,0,.92,0c.7.12.7-.33.6-.76S133.65,42.61,133.36,42.6Z"/><path class="cls-1" d="M137.81,45.3c0-1.16-.29-1.48-1.44-1.53a1.66,1.66,0,0,0-1.6.55c-.21.3-.19.54.26.55.29,0,.59.12.84-.19a.57.57,0,0,1,.67-.06.18.18,0,0,1,.11.23c-.1.23-.33.24-.52.3-.36.11-.73.18-1.09.29a.8.8,0,0,0-.52.91.88.88,0,0,0,.6.8,1.57,1.57,0,0,0,1.29-.11c.12,0,.22-.25.35-.09.33.41.74.09,1.17.22A6.43,6.43,0,0,1,137.81,45.3Zm-1.68,1.21c-.19.06-.43,0-.43-.24,0-.62.59-.43.91-.65A.62.62,0,0,1,136.13,46.51Z"/><path class="cls-1" d="M153.17,45.43c0-1.42-.59-1.91-2-1.63a1.22,1.22,0,0,0-1.06.6c-.14.3-.09.45.24.46s.67.13,1-.21a.42.42,0,0,1,.67.07c.14.34-.25.34-.43.41-.35.13-.73.18-1.09.29a.79.79,0,0,0-.58.87.92.92,0,0,0,.68.89A1.69,1.69,0,0,0,151.8,47c.11,0,.2-.26.34-.09.33.4.74.11,1.16.21A5.78,5.78,0,0,1,153.17,45.43ZM152,46c0,.39-.31.48-.56.58s-.46-.12-.42-.34c.07-.45.49-.43.82-.5S152,45.85,152,46Z"/><path class="cls-1" d="M147.37,43.25c0-.42,0-.69-.58-.68s-.61.23-.58.67,0,1,0,1.56,0,1.23,0,1.84.2.52.59.52.6,0,.58-.52C147.33,45.51,147.35,44.38,147.37,43.25Z"/><path class="cls-1" d="M155.57,43.8c-.35.31-.66.13-1,.07-.51-.09-.79.07-.7.66a6.54,6.54,0,0,1,0,1c0,.38,0,.76,0,1.13s.13.49.52.52c.55,0,.71-.15.64-.67a2.77,2.77,0,0,1,0-.91c.09-.37,0-.87.72-.81.31,0,.4-.51.38-.8S155.73,43.66,155.57,43.8Z"/><path class="cls-1" d="M144.88,43.86c-.33,0-.58,0-.56.46,0,.8,0,1.6,0,2.4,0,.33.09.42.43.44.51,0,.8-.08.71-.67a5.64,5.64,0,0,1,0-.92c0-.42,0-.85,0-1.27S145.19,43.87,144.88,43.86Z"/><path class="cls-1" d="M149.32,45.57c0-.42,0-.85,0-1.27s-.27-.44-.58-.43-.62-.12-.6.41c0,.82,0,1.65,0,2.47,0,.31.11.38.41.41.57.05.89-.07.77-.74A6,6,0,0,1,149.32,45.57Z"/><path class="cls-1" d="M148.82,43.44c.16,0,.52.16.51-.38s-.19-.51-.54-.47-.66-.13-.66.44S148.42,43.46,148.82,43.44Z"/><path class="cls-1" d="M144.91,42.59c-.28,0-.59-.1-.59.41s.21.5.48.46.68.11.68-.41S145.25,42.57,144.91,42.59Z"/><path class="cls-1" d="M18.47,45.57c-.29,0-.64-.66-.88.06a.71.71,0,0,1-.82.52c-.41,0-.53-.32-.64-.66a2,2,0,0,1-.05-1c.07-.36.16-.76.6-.88a.79.79,0,0,1,.9.38c.32.4.72.06,1-.06s0-.4-.07-.58a1.63,1.63,0,0,0-1.69-.82,1.69,1.69,0,0,0-1.72.88,2.94,2.94,0,0,0,.08,3,1.86,1.86,0,0,0,1.9.83,1.63,1.63,0,0,0,1.57-1.12C18.76,45.86,18.9,45.55,18.47,45.57Z"/><path class="cls-1" d="M22,44a1.8,1.8,0,1,0-2,3,1.93,1.93,0,0,0,2.58-.73c-.46,0-.9-.27-1.35.1a.44.44,0,0,1-.63-.12.39.39,0,0,1-.1-.31c.11-.27.37-.13.56-.14.42,0,.85,0,1.27,0,.22,0,.38,0,.36-.3A1.7,1.7,0,0,0,22,44Zm-1,1.18c-.21-.06-.52.09-.47-.28a.43.43,0,0,1,.51-.38c.26,0,.48.16.47.43S21.07,45.1,20.94,45.22Z"/><path class="cls-1" d="M24.61,44c-.14.08-.19.3-.38,0s-.62-.15-.91-.09-.13.4-.14.62,0,.66,0,1a9.37,9.37,0,0,1,0,1.06c-.05.46.11.59.58.6s.67-.14.62-.63a6.2,6.2,0,0,1,0-1.14c0-.28.07-.62.44-.62s.39.34.39.63,0,.71,0,1.06,0,.71.57.7.61-.21.58-.66,0-1,0-1.56C26.28,43.84,25.57,43.46,24.61,44Z"/><path class="cls-1" d="M33.85,43.76a1.75,1.75,0,1,0,1.7,1.76A1.63,1.63,0,0,0,33.85,43.76Zm0,2.56c-.52,0-.55-.44-.55-.83s.07-.8.58-.79.52.45.56.8S34.34,46.33,33.82,46.32Z"/><path class="cls-1" d="M28.72,46.28c-.58-.1-.21-.61-.27-.93s-.18-.58.26-.59.35-.2.35-.46,0-.47-.36-.44-.27-.19-.27-.38v-.73c-1-.07-1,.89-1.55,1.27-.09.06-.2.6.14.71s.26.33.27.54,0,.62,0,.92c0,.87.49,1.22,1.35,1,.17,0,.52,0,.45-.29S29.18,46.35,28.72,46.28Z"/><path class="cls-1" d="M31.2,43.84a.79.79,0,0,1-.72,0c-.74-.21-.89,0-.89.74s0,1.32,0,2c0,.44.12.63.57.53.56.14.68-.15.64-.65a6.26,6.26,0,0,1,0-1.06c0-.37.13-.66.63-.66s.47-.49.44-.74S31.48,43.67,31.2,43.84Z"/><path class="cls-1" d="M40.7,42.57c-.56,0-.76.16-.69.71A5.6,5.6,0,0,1,40,44c-1.14-.33-1.71-.18-2,.6a2.49,2.49,0,0,0,.11,2,1.08,1.08,0,0,0,1.55.5c.18-.09.23-.2.52,0,.51.38,1,0,1-.64,0-1.11,0-2.22,0-3.33C41.21,42.74,41.13,42.6,40.7,42.57Zm-1.2,3.7c-.45,0-.46-.44-.46-.75s0-.75.44-.77.52.38.54.75S40,46.28,39.5,46.27Z"/><path class="cls-1" d="M43.63,43.77A1.6,1.6,0,0,0,41.8,45a1.77,1.77,0,0,0,.89,2.15,1.84,1.84,0,0,0,2.37-.82c-.46,0-.9-.27-1.35.1a.44.44,0,0,1-.63-.13A.4.4,0,0,1,43,46c.11-.26.37-.11.56-.13s.47,0,.7,0,.76.19.92-.12,0-.82-.22-1.2A1.53,1.53,0,0,0,43.63,43.77Zm-.17,1.45c-.17-.08-.5.13-.5-.22s.24-.45.55-.44.47.17.45.44S43.63,45.14,43.46,45.22Z"/><path class="cls-1" d="M127.32,44.77a7.65,7.65,0,0,1-.27,1,2.6,2.6,0,0,1-.36-.93c-.4-1.17,0-1-1.49-1l1,2.78c.26.69.18.83-.52.9-.16,0-.37,0-.34.22s-.11.48.19.61a1.49,1.49,0,0,0,1.7-.49,38.64,38.64,0,0,0,1.39-4C127.82,43.69,127.4,44,127.32,44.77Z"/></g></g></svg>