<svg xmlns="http://www.w3.org/2000/svg" viewBox="0 0 44.66 44.66"><defs><style>.cls-1{fill:#03235a;}</style></defs><title>servicio 3</title><g id="Capa_2" data-name="Capa 2"><g id="Capa_1-2" data-name="Capa 1"><path class="cls-1" d="M22.33,0A22.33,22.33,0,1,0,44.66,22.33,22.33,22.33,0,0,0,22.33,0ZM12.07,8.92a1.56,1.56,0,0,1,1.9.55,1.05,1.05,0,0,0,1.26.44,2.93,2.93,0,1,1,.45,5.83,2.76,2.76,0,0,1-2.88-2.33c-.11-.56-.22-.93-.88-1.12a1.6,1.6,0,0,1-1.13-1.73A1.72,1.72,0,0,1,12.07,8.92Zm8.75,16c-.26,2.37-.21,4.78-.29,7.17,0,.5,0,1,0,1.51,0,.24-.25.46-.38.69-.15-.22-.4-.43-.43-.66-.06-.6,0-1.21,0-1.82,0-1.55,0-3.11,0-4.66,0-1-.22-2,.51-2.9.1-.13,0-.43,0-.8-1.88.93-3.49.35-5.42-.41.52,1.8.9,3.39,1.44,4.93s.58,1.47-1,1.73c-.23,0-.46.09-.83.17,0,.79,0,1.58,0,2.38a14.65,14.65,0,0,1-.3,2.29c-.15.69-.52,1.28-1.36,1.26a1.31,1.31,0,0,1-1.37-1.23,28.36,28.36,0,0,1-.25-3.32c0-.87,0-1.55-1.16-1.67a1.68,1.68,0,0,1-1.35-1.7,18.51,18.51,0,0,1,0-4.21,14,14,0,0,1,2.83-6.52,3.19,3.19,0,0,1,1.44-1,1.39,1.39,0,0,1,1.78,1.38,3.83,3.83,0,0,0,3.72,4.07C20.22,21.81,21,23.14,20.82,24.93ZM29.13,10A2.84,2.84,0,0,1,32,12.91a3,3,0,0,1-3,2.95,2.91,2.91,0,0,1-2.89-3A2.86,2.86,0,0,1,29.13,10Zm6.92,17.92a2.14,2.14,0,0,1-1.88,2,1.07,1.07,0,0,0-.61.8c-.09,1,0,2-.09,2.93a2.1,2.1,0,0,1-1.59,2.25,1.67,1.67,0,0,1-1.2-1,10,10,0,0,1-.43-2.57c-.07-.76,0-1.54,0-2.36-2.31-.43-2.27-.42-1.6-2.48.45-1.36.75-2.77,1.14-4.23a19.64,19.64,0,0,1-2.69.68,17.43,17.43,0,0,1-2.61-.13,5.65,5.65,0,0,0,.07.76,9.48,9.48,0,0,1,.39,1.7c.05,2.4,0,4.79,0,7.19,0,.31-.3.62-.47.93a3.21,3.21,0,0,1-.35-.93c0-1.85,0-3.71,0-5.57a7.33,7.33,0,0,0-.18-2.4,2.81,2.81,0,0,1,.9-3.29,1.89,1.89,0,0,1,1.06-.43A4.34,4.34,0,0,0,29.33,20,4.18,4.18,0,0,0,30,18.1c.05-.79,0-1.51.92-1.8a1.88,1.88,0,0,1,2.21.81,14.81,14.81,0,0,1,3,6.89A17,17,0,0,1,36.05,27.91Z"/></g></g></svg>