<svg xmlns="http://www.w3.org/2000/svg" viewBox="0 0 44.7 44.77"><defs><style>.cls-1{fill:#03235a;}</style></defs><title>servicio 1</title><g id="Capa_2" data-name="Capa 2"><g id="Capa_1-2" data-name="Capa 1"><path class="cls-1" d="M44.69,22.37A22.35,22.35,0,1,1,22.73,0,22.32,22.32,0,0,1,44.69,22.37ZM20.09,10.21a3,3,0,0,1,.32,4.33c-.91,1.1-1.93,2.12-2.86,3.22a31.59,31.59,0,0,0-4,6.11,2.29,2.29,0,0,0,.32,2.67c1.61,2.1,3.2,4.22,4.83,6.3a1.12,1.12,0,0,1,.2,1.25,32.15,32.15,0,0,0-1.47,5.63c-.1.5,0,.73.56.75.85,0,1.69.13,2.53.12A21,21,0,0,0,25.89,40a5.57,5.57,0,0,0,2.72-1.44,16.6,16.6,0,0,0,1.48-1.76,6.17,6.17,0,0,0,1-1.75,7.62,7.62,0,0,0-1-7,21.1,21.1,0,0,0-2.65-3.07c-.42-.41-.49-.71,0-1a2.42,2.42,0,0,0,.76-1.14c.38-.77.32-1.23-.35-1.68a14.89,14.89,0,0,1-4-3.62A3.4,3.4,0,0,1,23.23,14a.72.72,0,0,1,.87-.48,3.48,3.48,0,0,1,1.07.45c.8.46,1.26.26,1.56-.57a4.12,4.12,0,0,1,1-1.83c.38-.32.31-.47.05-.8A1.12,1.12,0,0,1,28,9.05a.67.67,0,0,0,.26-.73,4.21,4.21,0,0,0-2-2.86c-.44-.25-.92-.43-1.34-.7a3.55,3.55,0,0,0-1.75-.44c-.73-.05-1.45.46-2.13.11a2.53,2.53,0,0,0-3.3,1.45,10.08,10.08,0,0,0-.7,3.47c0,1.19.15,2.37.14,3.55,0,1-.49,1.43-1.32,1.35-.17,0-.39-.16-.48.08s.15.32.28.44a2.66,2.66,0,0,0,4.2-1.19A7.08,7.08,0,0,0,20.09,10.21Z"/><path class="cls-1" d="M20.9,28.43a20.14,20.14,0,0,1-1,3c-.13.31-.33.17-.46,0q-1.9-2.88-3.79-5.77a.7.7,0,0,1-.07-.72,7.22,7.22,0,0,1,2-2.69.46.46,0,0,1,.79.16,32.12,32.12,0,0,1,2.35,5.38A6.78,6.78,0,0,1,20.9,28.43Z"/><path class="cls-1" d="M29.27,31.69a1.73,1.73,0,0,1-1.08,1.91,2.37,2.37,0,0,0-.49.36,1.51,1.51,0,0,1-2.36-.28,3.44,3.44,0,0,0-.35-.41,2.34,2.34,0,0,1-.41-2.77,1.51,1.51,0,0,1,1.69-.1.64.64,0,0,0,1,0,1.1,1.1,0,0,1,1.35,0A1.08,1.08,0,0,1,29.27,31.69Z"/></g></g></svg>