<svg xmlns="http://www.w3.org/2000/svg" viewBox="0 0 43.7 43.7"><defs><style>.cls-1{fill:#03235a;}</style></defs><title>servicio 4</title><g id="Capa_2" data-name="Capa 2"><g id="Capa_1-2" data-name="Capa 1"><path class="cls-1" d="M30.82,12.79a6.06,6.06,0,0,1,.59.87.39.39,0,0,0,.52.22V12.11h-.34v1.12c-.23-.31-.43-.61-.62-.92s-.18-.26-.49-.19v1.76h.34Z"/><path class="cls-1" d="M27.32,13.9a1.21,1.21,0,0,0,1-.17.25.25,0,0,0,.11-.14c0-.21,0-.43,0-.65H27.6v.3H28c0,.23,0,.25-.15.32a.88.88,0,0,1-.27.06.49.49,0,0,1-.51-.45c-.07-.39.05-.67.31-.76a.48.48,0,0,1,.64.25l.35-.08,0-.12c-.13-.29-.4-.41-.83-.39a.84.84,0,0,0-.83.8A.89.89,0,0,0,27.32,13.9Z"/><path class="cls-1" d="M30.14,13.59h-1V13.1H30v-.3h-.91v-.4h1v-.29H28.75v1.78h1.39Z"/><path class="cls-1" d="M28,16.8H27v1.42H25.55v1H27v1.4h1V19.16h1.46v-.95H28Z"/><path class="cls-1" d="M33.06,13.93a.7.7,0,0,0,.8-.59l-.16-.06-.16,0,0,.1a.39.39,0,0,1-.42.27.4.4,0,0,1-.39-.35,2.1,2.1,0,0,1,0-.5.43.43,0,0,1,.38-.38c.21,0,.34,0,.47.29l.39-.09a2.59,2.59,0,0,0-.24-.33.86.86,0,0,0-1.37.45A.9.9,0,0,0,33.06,13.93Z"/><path class="cls-1" d="M16.15,23.39H10.64V30h5.51Z"/><path class="cls-1" d="M34.52,12.86a.81.81,0,0,1,.18.61c0,.14,0,.28,0,.42h.37c0-.13,0-.25,0-.37a.91.91,0,0,1,.2-.69c.17-.23.31-.47.48-.73h-.19a.31.31,0,0,0-.36.2,5.61,5.61,0,0,1-.3.51c-.13-.22-.25-.41-.38-.61a.23.23,0,0,0-.12-.1H34a1.81,1.81,0,0,1,.1.17C34.26,12.47,34.38,12.67,34.52,12.86Z"/><path class="cls-1" d="M20.64,13.59h-1V13.1h.9v-.3h-.91v-.4h1v-.29H19.25v1.78h1.39Z"/><path class="cls-1" d="M21.85,0A21.85,21.85,0,1,0,43.7,21.85,21.85,21.85,0,0,0,21.85,0ZM19.61,33.22H7.09V20.59H19.61Zm17-17.7H34.89v17.7H30.27V24.39H24.74v8.83H20.12V15.53H18.38v-5H36.61Z"/><path class="cls-1" d="M21.32,12.64a8,8,0,0,1,.31,1.06c0,.16.1.21.27.21s.16-.1.19-.21c.09-.37.19-.73.29-1.1h0v1.28h.33V12.1h-.42c-.11,0-.14,0-.17.13-.08.34-.18.69-.28,1.07,0-.08,0-.12-.06-.16-.08-.3-.16-.61-.25-.91a.19.19,0,0,0-.1-.13H21v1.79h.34Z"/><path class="cls-1" d="M25.24,13.16a.38.38,0,0,1,.45.18l.33.46a.17.17,0,0,0,.13.09,2.46,2.46,0,0,0,.4,0L26,13.09l.06,0a.46.46,0,0,0,.35-.52.43.43,0,0,0-.42-.43c-.35,0-.71,0-1.08,0v1.76h.37Zm0-.75a5.32,5.32,0,0,1,.57,0c.07,0,.15.12.17.2a.17.17,0,0,1-.16.22c-.19,0-.38,0-.58,0Z"/><path class="cls-1" d="M24.52,13.59h-1V13.1h.9v-.31h-.91V12.4h1v-.29H23.14v1.78h1.38Z"/></g></g></svg>