<svg xmlns="http://www.w3.org/2000/svg" viewBox="0 0 43.08 43.08"><defs><style>.cls-1{fill:#03235a;}</style></defs><title>servicio 2</title><g id="Capa_2" data-name="Capa 2"><g id="Capa_1-2" data-name="Capa 1"><path class="cls-1" d="M17.53,20.46a5.7,5.7,0,0,0,1.31,1.73,3.92,3.92,0,0,0,2.31.94,4,4,0,0,0,3.18-1.08,7.81,7.81,0,0,0,1.53-2.43c.07-.14,0-.17-.13-.16H24.39c-.14,0-.21.05-.21.19,0,.34-.05.67-.07,1s-.1.41-.37.46a12.47,12.47,0,0,1-1.34.22,11.36,11.36,0,0,1-3.29-.21.4.4,0,0,1-.35-.39c0-.37,0-.74-.09-1.1,0-.15-.09-.18-.22-.18H17.26c-.14,0-.17.05-.12.18C17.28,19.91,17.39,20.19,17.53,20.46Z"/><path class="cls-1" d="M31.3,29.46c-1.61,0-3.22,0-4.82,0-.31,0-.45.14-.45.45s0,.45,0,.68.13.47.46.47h4.79c.3,0,.42-.12.43-.41v-.79C31.7,29.59,31.58,29.46,31.3,29.46Z"/><path class="cls-1" d="M21.54,0A21.54,21.54,0,1,0,43.08,21.54,21.54,21.54,0,0,0,21.54,0ZM14.87,14.06a19.3,19.3,0,0,1,.23-2.4c.1-.88.24-1.75.4-2.63.06-.3.14-.59.2-.89a.85.85,0,0,1,.48-.58,4.79,4.79,0,0,1,1.44-.38A24,24,0,0,1,20.16,7c1,0,1.91,0,2.87,0a18,18,0,0,1,3,.33,2.17,2.17,0,0,1,1.06.44.69.69,0,0,1,.22.33,20.74,20.74,0,0,1,.49,2.59c.12.84.21,1.68.31,2.52a7.32,7.32,0,0,1,.06,1.15s0,.1,0,.13-.08,0-.11,0c-.59-.41-1.18-.79-1.8-1.14a10.59,10.59,0,0,0-1.69-.83,9.24,9.24,0,0,0-2.93-.52A9.12,9.12,0,0,0,17,13.17c-.58.34-1.16.7-1.72,1.08-.11.07-.21.24-.33.17S14.87,14.18,14.87,14.06Zm-.11,1.82a9.17,9.17,0,0,1,.82-.7l.41-.29s.08-.09.13-.06,0,.1,0,.15c0,.38,0,.76.05,1.14a9.29,9.29,0,0,0,.37,2,.24.24,0,0,0,.27.2q.79,0,1.59,0c.14,0,.21,0,.23-.2a3,3,0,0,1,.12-.66,1.16,1.16,0,0,1,.69-.74,5.68,5.68,0,0,1,2.74-.28,6.24,6.24,0,0,1,1,.23,1.17,1.17,0,0,1,.83.81,3.19,3.19,0,0,1,.12.63c0,.14.07.21.23.21.59,0,1.18,0,1.76,0a.24.24,0,0,0,.27-.21,11.57,11.57,0,0,0,.4-2.4c0-.21,0-.42,0-.63s.06-.17.19-.08a14.82,14.82,0,0,0,1.34.89.19.19,0,0,1,.09.19,4.18,4.18,0,0,1-.81,2.78.58.58,0,0,1-.66.28c-.14,0-.19,0-.25.16-.36.66-.62,1.37-1,2a5,5,0,0,1-1.91,2,5.11,5.11,0,0,1-2.57.57,4.83,4.83,0,0,1-2.5-.69,5.09,5.09,0,0,1-1.42-1.43,9.2,9.2,0,0,1-1-2.1.76.76,0,0,1-.06-.16c-.06-.27-.17-.44-.5-.37s-.35-.12-.47-.27a3.66,3.66,0,0,1-.53-.94,4.26,4.26,0,0,1-.3-1.49A.65.65,0,0,1,14.76,15.88ZM34.41,32.37c0,.4-.28.62-.58.82a14.33,14.33,0,0,1-3.35,1.6,28.83,28.83,0,0,1-3.17.8c-.86.17-1.72.29-2.59.39s-1.75.15-2.64.17a30.75,30.75,0,0,1-6.56-.6,22.29,22.29,0,0,1-4.07-1.18,11.83,11.83,0,0,1-1.87-1l-.51-.32a.92.92,0,0,1-.44-.84c0-.47,0-1,0-1.42A3.84,3.84,0,0,1,9,28.74a5.36,5.36,0,0,1,1.21-1.39,16.07,16.07,0,0,1,2.88-1.89A19.69,19.69,0,0,1,16,24.06c.4-.14.4-.14.64.21.51.77,1.05,1.52,1.61,2.26S19.41,28,20,28.71s.94,1.17,1.4,1.76c.09.12.14.13.24,0,.84-1.05,1.69-2.08,2.51-3.14s1.56-2.05,2.26-3.12c.2-.3.2-.3.53-.19a18.86,18.86,0,0,1,2.84,1.34,16.17,16.17,0,0,1,1.92,1.14,8.49,8.49,0,0,1,2.14,1.91,3.1,3.1,0,0,1,.55,1.4A15.51,15.51,0,0,1,34.41,32.37Z"/></g></g></svg>